<?xml version="1.0" encoding="UTF-8" standalone="no"?>
<!-- Created with Inkscape (http://www.inkscape.org/) -->

<svg
   version="1.1"
   id="svg1"
   width="1191.4413"
   height="418.91895"
   viewBox="0 0 1191.4413 418.91895"
   sodipodi:docname="arcs-title-logo.svg"
   xmlns:inkscape="http://www.inkscape.org/namespaces/inkscape"
   xmlns:sodipodi="http://sodipodi.sourceforge.net/DTD/sodipodi-0.dtd"
   xmlns="http://www.w3.org/2000/svg"
   xmlns:svg="http://www.w3.org/2000/svg">
  <defs
     id="defs1">
    <clipPath
       clipPathUnits="userSpaceOnUse"
       id="clipPath1">
      <rect
         style="fill:#000000"
         id="rect2"
         width="1191.4414"
         height="418.91891"
         x="382.88287"
         y="1099.0991" />
    </clipPath>
    <mask
       id="logoTextMask"
       maskUnits="userSpaceOnUse"
       x="382.88286"
       y="1099.0991"
       width="1191.4413"
       height="418.91895">
      <rect
         x="382.88287"
         y="1099.0991"
         width="1191.4413"
         height="418.91895"
         fill="#ffffff"
         id="rect1" />
      <path
         style="fill:#000000;stroke-width:1.00012"
         d="M -22.522522,1296.4235 V 917.7928 H 962.83783 1948.1982 v 378.6307 378.6305 H 962.83783 -22.522522 Z M 1544.2005,1667.9483 c -0.7815,-0.4976 -1.6427,-0.6762 -1.9137,-0.3971 -0.271,0.2792 0.1468,0.9146 0.9283,1.4122 0.7815,0.4976 1.6427,0.6764 1.9137,0.3972 0.271,-0.2791 -0.1468,-0.9147 -0.9283,-1.4123 z m -421.2427,-165.6489 c 1.4163,-4.0448 3.048,-7.9409 3.6259,-8.6583 1.7408,-2.1609 6.3441,-1.4808 11.6049,1.7147 5.1209,3.1105 6.5482,2.8271 2.8986,-0.5753 -2.8875,-2.692 -4.8259,-6.8763 -4.8259,-10.4176 0,-4.4699 6.2212,-7.9422 16.5629,-9.2443 1.1836,-0.1491 -1.2729,-2.0685 -2.6472,-2.0685 -4.1928,0 -12.3856,-3.4344 -15.7232,-6.591 l -3.612,-3.4162 1.8665,-3.371 c 1.0266,-1.854 2.7651,-4.3969 3.8633,-5.6509 3.5011,-3.9978 1.1638,-3.456 -3.2663,0.7572 -2.3482,2.2333 -4.7921,4.0606 -5.4308,4.0606 -3.7853,0 -9.0878,-13.9492 -10.016,-26.3488 -0.3335,-4.4557 -0.9852,-7.8603 -1.4481,-7.5655 -0.4629,0.2947 -0.8417,1.8728 -0.8417,3.5067 0,6.5806 -4.8233,22.7867 -8.5539,28.7406 -2.2153,3.5356 -2.7566,3.8545 -5.5718,3.282 -1.7149,-0.3488 -5.2243,-1.9779 -7.7986,-3.6205 -5.3696,-3.4259 -6.0579,-2.7689 -1.6363,1.5618 6.7921,6.6525 6.8831,10.1409 0.3971,15.2373 -2.7559,2.1655 -4.0604,2.5615 -6.638,2.0155 -1.7644,-0.3737 -6.4081,-0.9319 -10.3193,-1.2404 -4.2838,-0.3378 -7.5639,-1.1228 -8.2498,-1.9743 -0.6263,-0.7773 -1.7928,-1.4133 -2.5922,-1.4133 -1.8713,0 -27.8215,-17.5934 -38.705,-26.2408 -4.6065,-3.6601 -11.2577,-9.4785 -14.7804,-12.9297 -3.5226,-3.4512 -9.2851,-8.6415 -12.80543,-11.534 -5.98409,-4.9168 -9.80227,-9.1096 -15.77,-17.3171 -1.35487,-1.8633 -4.34791,-5.6794 -6.65119,-8.4801 -2.30327,-2.8007 -4.20827,-5.5763 -4.2333,-6.168 -0.0246,-0.5916 -2.44251,-4.5016 -5.37209,-8.6889 -2.9297,-4.1873 -7.08878,-10.8108 -9.24248,-14.7189 -4.15627,-7.542 -11.94767,-27.4022 -13.74024,-35.0237 -0.59053,-2.5108 -2.18089,-8.6077 -3.53415,-13.5488 -3.38962,-12.3764 -5.35343,-35.0932 -3.5935,-41.5687 1.4811,-5.4496 2.04271,-6.0151 7.59751,-7.6495 4.804,-1.4136 13.14285,-7.0085 18.2097,-12.2177 1.96993,-2.0253 4.96907,-4.7501 6.66478,-6.0551 1.91731,-1.4755 4.66055,-5.6975 7.25521,-11.166 l 4.17211,-8.7933 -0.0739,-14.2113 c -0.066,-12.8025 -0.32714,-14.8715 -2.62845,-20.8697 -8.67521,-22.6111 -24.02459,-37.5947 -39.92223,-38.9711 -6.37643,-0.552 -15.0999,-1.8231 -25.55405,-3.7234 -5.78272,-1.0511 -8.28948,-1.0433 -13.59203,0.043 -3.57591,0.7323 -8.36666,1.1919 -10.6461,1.0213 -6.67529,-0.4993 -29.4949,-0.4742 -46.51494,0.051 -8.67117,0.2677 -23.08207,0.3387 -32.02421,0.1579 -8.94215,-0.1808 -22.48661,-0.2535 -30.09879,-0.1616 -7.6122,0.092 -14.9285,-0.097 -16.25845,-0.4217 -1.32996,-0.324 -3.07617,-0.1488 -3.88047,0.3892 -1.19309,0.798 -0.68786,1.6612 2.74373,4.6871 2.31335,2.0399 5.02047,5.3728 6.01581,7.4065 2.19146,4.4774 6.74725,20.4165 7.43994,26.0296 1.36243,11.0403 2.46853,29.3916 2.87561,47.7095 0.24815,11.166 0.75262,21.0882 1.12107,22.0492 0.36844,0.9611 0.75033,15.1216 0.84863,31.4679 0.0983,16.3464 0.78644,37.3435 1.52919,46.6602 l 1.35046,16.9394 -2.63848,5.5556 c -2.45498,5.1693 -6.5481,9.6799 -12.89609,14.2116 -1.44549,1.0318 -2.39141,2.12 -2.10203,2.4181 0.28936,0.2982 10.62902,0.7225 22.97701,0.9431 12.348,0.2205 27.24947,0.5099 33.11441,0.6431 7.74467,0.1758 10.95226,-0.1163 11.7184,-1.0673 0.58019,-0.7203 0.88085,-1.4316 0.66813,-1.581 -0.21271,-0.1492 -2.20181,-1.4677 -4.42022,-2.9298 -4.07024,-2.6828 -10.11415,-10.9834 -12.77601,-17.5464 -0.79418,-1.958 -1.63062,-6.4163 -1.85875,-9.9071 -0.22804,-3.491 -1.13455,-15.7113 -2.01439,-27.1565 -0.87983,-11.4452 -1.46368,-25.3774 -1.29745,-30.9604 l 0.30224,-10.151 5.41948,-0.6535 c 10.88012,-1.3119 58.7594,-3.1933 63.30472,-2.4874 7.72293,1.1992 14.13548,8.482 15.63389,17.7555 5.42815,33.5941 9.74642,47.4331 22.7394,72.874 6.78509,13.2855 7.83364,14.7367 19.99217,27.6685 30.0914,32.0053 35.39343,37.124 45.57674,44.0018 5.54511,3.7451 10.25779,6.8092 10.4727,6.8092 0.21501,0 3.88124,1.9716 8.14728,4.3814 4.266,2.4097 10.4169,5.4739 13.6686,6.8092 3.2517,1.3355 7.9075,3.6927 10.3463,5.2384 9.6053,6.0882 37.5277,15.6343 50.2534,17.1809 10.8431,1.3178 15.0516,2.8972 20.5771,7.7224 l 3.3334,2.9109 -1.7476,3.5096 c -0.9612,1.9302 -2.7938,4.8006 -4.0724,6.3788 -1.2786,1.5782 -2.3248,3.3953 -2.3248,4.038 0,0.6426 1.3702,-0.5439 3.0448,-2.6369 3.3485,-4.1849 8.2265,-7.244 10.2658,-6.4378 1.734,0.6855 8.8319,13.2751 10.3785,18.4089 0.6728,2.2332 1.4479,4.7455 1.7223,5.583 0.2745,0.8374 0.8516,-0.4052 1.2825,-2.7616 0.4309,-2.3563 1.9423,-7.5935 3.3585,-11.6381 z M 914.55517,1266.0858 c 0,-1.0935 5.82666,-2.0941 6.42144,-1.1027 0.23238,0.3874 0.13895,0.9964 -0.20761,1.3534 -0.95813,0.987 -6.21383,0.775 -6.21383,-0.2507 z m -105.79254,-12.9804 c -0.31346,-3.2528 -0.85563,-11.624 -1.20484,-18.6028 -0.3492,-6.9787 -0.74896,-13.3738 -0.88834,-14.2113 -0.13938,-0.8374 -0.42064,-12.0289 -0.62501,-24.8698 l -0.37159,-23.3472 5.41949,-0.7725 c 2.98071,-0.4248 8.52336,-1.2808 12.317,-1.902 18.41171,-3.0152 88.70911,-1.6465 97.33005,1.8951 2.04645,0.8407 5.84226,3.9806 8.43514,6.9774 7.55922,8.7373 11.46822,23.178 10.85339,40.0949 -0.29509,8.1194 -0.79928,10.5182 -3.39145,16.1354 -3.90746,8.4675 -7.37896,12.6364 -14.43383,17.3338 -8.6085,5.7319 -13.67969,6.1324 -70.71053,5.5861 -4.60656,-0.044 -15.97697,0.2971 -25.26757,0.7584 l -16.89201,0.8386 z m 149.1484,-40.875 c 0,-3.4236 0.43687,-6.1504 0.98536,-6.1504 0.54195,0 0.98536,2.4853 0.98536,5.523 0,3.0378 -0.44341,5.8054 -0.98536,6.1506 -0.6155,0.3918 -0.98536,-1.6813 -0.98536,-5.5232 z m -177.37571,-6.4042 c -0.006,-1.2562 -0.28569,-3.9969 -0.62161,-6.0906 -0.35937,-2.2398 -0.21283,-3.8066 0.35603,-3.8066 0.53174,0 1.04663,2.7408 1.1442,6.0906 0.0975,3.3498 -0.0577,6.0906 -0.34519,6.0906 -0.28742,0 -0.52746,-1.0278 -0.53343,-2.284 z m 179.34643,-7.4194 c 0,-0.8704 0.44341,-1.3003 0.98536,-0.9551 0.54195,0.345 0.98536,1.0571 0.98536,1.5825 0,0.5253 -0.44341,0.9552 -0.98536,0.9552 -0.54195,0 -0.98536,-0.7122 -0.98536,-1.5826 z m -464.67271,290.0404 c 9.62792,-0.5488 11.89962,-0.9689 11.89962,-2.2009 0,-1.0188 -0.80601,-1.4294 -2.43596,-1.2409 -2.92945,0.3388 -11.117,-3.1039 -15.55596,-6.541 -1.76633,-1.3676 -4.2051,-4.4015 -5.41948,-6.7421 -2.05964,-3.9694 -2.19071,-5.3418 -1.95112,-20.4289 0.19709,-12.4108 0.58897,-16.5516 1.68447,-17.7986 0.7852,-0.8938 2.59259,-4.3503 4.01645,-7.6812 1.42384,-3.3308 3.56731,-7.4264 4.76324,-9.1013 1.19593,-1.6749 3.44308,-6.2428 4.99365,-10.151 1.55057,-3.9081 5.01379,-11.902 7.69605,-17.7641 7.86971,-17.1996 9.17851,-20.1539 14.8402,-33.4982 2.96093,-6.9788 7.48558,-17.2566 10.05477,-22.8396 7.91327,-17.1962 13.46164,-30.3108 14.17196,-33.4982 0.37326,-1.6749 2.36099,-6.6996 4.41718,-11.166 2.0562,-4.4665 5.51873,-12.2319 7.69452,-17.2567 5.69144,-13.1436 19.45214,-41.9497 22.25507,-46.5878 1.31417,-2.1746 3.57304,-6.8121 5.01971,-10.3056 4.4375,-10.7159 11.3359,-22.8206 12.84633,-22.5415 0.76669,0.1416 2.12872,1.6279 3.02672,3.3028 5.0585,9.4348 10.64625,20.1471 13.76689,26.3925 1.95279,3.9081 5.86488,11.0517 8.69356,15.8748 2.82867,4.8232 5.14304,9.0281 5.14304,9.3443 0,0.9668 8.81958,21.9371 13.30111,31.6262 2.32412,5.0247 5.81966,12.6292 7.76785,16.899 1.94821,4.2698 5.46863,11.1217 7.82318,15.2264 2.35456,4.1048 5.96174,11.3461 8.01597,16.0916 6.94044,16.0335 15.99338,33.9992 23.03098,45.7056 11.30697,18.808 35.20691,69.2152 38.10957,80.3767 1.34922,5.1882 2.45177,10.3466 2.45011,11.4632 -0.0111,7.4914 -6.86241,17.6075 -13.43953,19.8437 -4.22049,1.4349 -3.72538,2.1146 1.81264,2.4885 18.15755,1.2259 24.8123,1.5507 46.12249,2.2514 23.97787,0.7884 42.04313,0.7398 45.81925,-0.1232 1.0839,-0.2477 2.30328,-0.4854 2.70974,-0.528 0.40647,-0.043 0.73903,-0.6706 0.73903,-1.3953 0,-0.7246 -2.54962,-2.4959 -5.66583,-3.9361 -7.18228,-3.3196 -25.71653,-17.6293 -27.76366,-21.4356 -3.19146,-5.9339 -17.5947,-30.87 -20.93628,-36.2466 -1.90843,-3.0707 -8.05231,-14.9473 -13.65307,-26.3925 -5.77923,-11.8099 -13.73437,-26.1666 -18.39446,-33.1966 -7.77796,-11.7335 -11.01663,-17.8479 -22.74224,-42.9355 -19.62031,-41.979 -28.55052,-60.4249 -34.9664,-72.2253 -4.05204,-7.4527 -8.18606,-15.6059 -9.18672,-18.1182 -1.50934,-3.7896 -21.51593,-44.8937 -30.87984,-63.4435 -1.40914,-2.7915 -3.96191,-8.273 -5.6728,-12.1812 -1.7109,-3.9081 -5.09025,-11.4452 -7.50968,-16.749 -4.85229,-10.6372 -13.96413,-31.9782 -14.84435,-34.7671 -0.9055,-2.869 -2.35486,-2.0544 -3.612,2.0302 -0.64437,2.0937 -1.79751,4.8344 -2.56253,6.0906 -0.76501,1.2562 -1.15474,2.284 -0.86606,2.284 0.57639,0 -3.83644,9.1609 -6.35659,13.1962 -0.8717,1.3958 -2.16862,4.3649 -2.88204,6.5981 -2.39827,7.5073 -13.17103,35.5185 -14.03458,36.4927 -0.47019,0.5304 -0.85488,1.988 -0.85488,3.2391 0,1.2512 -0.40495,2.5326 -0.89987,2.8477 -1.31973,0.8403 -5.99766,10.8282 -5.99766,12.8056 0,0.9317 -0.82554,2.7834 -1.83454,4.1149 -1.9355,2.554 -7.87722,16.0134 -9.93043,22.4948 -0.66774,2.1077 -2.26414,5.1179 -3.54756,6.6893 -1.28342,1.5712 -3.26575,5.4237 -4.40517,8.561 -1.13942,3.1372 -5.78847,13.261 -10.33124,22.4973 -4.54275,9.2363 -9.45598,20.789 -10.91828,25.6727 -1.4623,4.8836 -6.29321,16.4165 -10.73536,25.6285 -4.44217,9.212 -9.12914,19.4899 -10.41551,22.8397 -2.23038,5.8081 -4.92648,11.064 -11.45554,22.3321 -5.44286,9.3934 -13.83627,26.3448 -16.08386,32.483 -4.46382,12.1907 -5.38251,14.2861 -8.09161,18.4546 -1.51671,2.3338 -2.75765,4.6861 -2.75765,5.2272 0,0.5413 -1.60104,3.4281 -3.55785,6.4153 -1.95683,2.9871 -5.32807,9.0025 -7.49167,13.3673 -2.16359,4.3648 -5.66658,9.8463 -7.7844,12.1811 -2.11784,2.3349 -6.2743,9.0982 -9.23659,15.0298 -4.63343,9.2777 -6.52503,11.8896 -13.53809,18.6928 -4.72278,4.5815 -10.32827,8.9366 -13.32524,10.353 -10.03672,4.7433 -7.9727,5.1814 23.64865,5.019 15.85198,-0.081 32.59079,0.3097 37.19735,0.869 4.60656,0.5593 10.33703,0.8561 12.73438,0.6596 2.39735,-0.1966 9.71366,-0.6626 16.25845,-1.0356 z m 231.1423,-8.1073 c 0,-1.2267 1.86943,-2.6571 2.55278,-1.9531 0.24801,0.2555 -0.2249,1.0424 -1.05092,1.7486 -0.93648,0.8006 -1.50186,0.8776 -1.50186,0.2045 z m 11.02783,-0.2603 c 0.1942,-0.6002 0.77433,-1.0912 1.28918,-1.0912 0.51485,0 1.09498,0.491 1.28918,1.0912 0.1942,0.6002 -0.38593,1.0913 -1.28918,1.0913 -0.90325,0 -1.48338,-0.4911 -1.28918,-1.0913 z m 20.69257,-18.2717 c 0.19419,-0.6002 0.77433,-1.0912 1.28918,-1.0912 0.51485,0 1.09498,0.491 1.28917,1.0912 0.19421,0.6001 -0.38592,1.0912 -1.28917,1.0912 -0.90325,0 -1.48338,-0.4911 -1.28918,-1.0912 z m -11.02783,-5.5069 c 0,-0.8374 0.66512,-1.5226 1.47804,-1.5226 0.81292,0 1.47804,0.6852 1.47804,1.5226 0,0.8375 -0.66512,1.5227 -1.47804,1.5227 -0.81292,0 -1.47804,-0.6852 -1.47804,-1.5227 z m -10.16153,-9.2839 c -1.35372,-1.3946 -0.65156,-3.5485 1.04695,-3.2116 0.94841,0.1882 1.72438,0.983 1.72438,1.7663 0,1.6027 -1.73846,2.5093 -2.77133,1.4453 z m -260.69737,-47.8699 c 2.08568,-5.0461 4.37954,-8.0883 5.34707,-7.0916 0.8744,0.9008 -4.16359,10.6118 -5.85146,11.2791 -1.17929,0.4661 -1.08066,-0.3528 0.50439,-4.1875 z m 3.82624,-13.1923 c 0,-1.0676 2.14016,-3.2483 3.18782,-3.2483 0.45263,0 0.34835,0.9136 -0.23173,2.0302 -1.04149,2.0047 -2.95609,2.7936 -2.95609,1.2181 z m 238.19574,-21.6507 c -2.01868,-1.1638 -6.13974,-9.0052 -4.73269,-9.0052 1.02032,0 7.396,9.0301 6.80531,9.6385 -0.19224,0.1981 -1.12492,-0.087 -2.07262,-0.6333 z m -16.44449,-7.9032 c -0.6053,-1.1651 -0.68861,-2.1171 -0.18525,-2.1171 1.01271,0 2.41081,3.0745 1.72115,3.785 -0.23982,0.2471 -0.93097,-0.5035 -1.5359,-1.6679 z m -17.54176,-6.4312 c -1.86233,-2.3949 -5.16669,-9.8169 -5.16669,-11.6053 0,-1.6055 0.13945,-1.5837 1.35978,0.2132 4.27094,6.289 7.35375,12.6609 6.12551,12.6609 -0.73251,0 -1.77587,-0.571 -2.3186,-1.2688 z m 4.68691,-2.7916 c 0,-0.5583 0.69129,-1.015 1.5362,-1.015 0.8449,0 1.26215,0.4567 0.9272,1.015 -0.33494,0.5583 -1.02623,1.0151 -1.5362,1.0151 -0.50996,0 -0.9272,-0.4568 -0.9272,-1.0151 z m -189.17744,-5.2446 c 0.0137,-2.7527 5.96917,-14.235 7.68968,-14.8258 2.09452,-0.7192 1.23121,3.5238 -2.03561,10.0046 -3.4398,6.824 -5.67346,8.7287 -5.65407,4.8212 z m 7.87113,1.1843 c 0,-0.5583 0.44342,-1.0151 0.98536,-1.0151 0.54195,0 0.98536,0.4568 0.98536,1.0151 0,0.5583 -0.44341,1.0151 -0.98536,1.0151 -0.54194,0 -0.98536,-0.4568 -0.98536,-1.0151 z m 9.41527,-15.1359 c -0.66278,-1.1049 1.41743,-5.166 2.64609,-5.166 0.41158,0 0.74833,0.8576 0.74833,1.9058 0,2.3355 -2.50549,4.7419 -3.39442,3.2602 z m 2.90174,-7.1962 c 0.33494,-0.5583 0.80453,-1.0151 1.04351,-1.0151 0.23899,0 0.43453,0.4568 0.43453,1.0151 0,0.5583 -0.46958,1.0151 -1.04352,1.0151 -0.57393,0 -0.76947,-0.4568 -0.43452,-1.0151 z m 18.81699,-17.0981 c -0.34098,-0.5684 -0.13982,-1.3391 0.44702,-1.7128 1.51497,-0.9645 2.49244,0.3567 1.22774,1.6596 -0.70767,0.7289 -1.25882,0.7465 -1.67476,0.053 z m 9.26578,-37.7012 c 0,-2.1962 5.83612,-9.4725 5.88328,-7.3349 0.044,1.9974 -3.8232,9.3492 -4.91794,9.3492 -0.53095,0 -0.96534,-0.9064 -0.96534,-2.0143 z m 9.8536,-16.765 c 0,-0.8374 0.65121,-1.5226 1.44712,-1.5226 0.8815,0 1.22543,0.595 0.87994,1.5226 -0.31196,0.8375 -0.96315,1.5227 -1.44712,1.5227 -0.48396,0 -0.87994,-0.6852 -0.87994,-1.5227 z m 34.87059,-85.3396 c 0.33131,-0.8894 0.60239,-2.0365 0.60239,-2.5492 0,-0.5126 0.44341,-0.932 0.98536,-0.932 1.62302,0 1.11195,3.7931 -0.60239,4.4708 -1.16211,0.4594 -1.42626,0.194 -0.98536,-0.9896 z m 852.75689,295.8278 c 1.2547,-0.479 3.1947,-0.8709 4.3111,-0.8709 1.1165,0 6.5344,-2.222 12.0399,-4.9376 5.5055,-2.7156 11.0521,-5.2781 12.3257,-5.6946 8.7664,-2.8663 31.4163,-22.2698 39.2095,-33.5897 5.5442,-8.0533 10.7793,-21.7261 12.6934,-33.1517 1.3048,-7.7896 1.372,-10.689 0.4052,-17.4977 -2.1824,-15.372 -4.5303,-22.6023 -12.3428,-38.0109 -3.2925,-6.4937 -14.8382,-17.8451 -23.3772,-22.9837 -20.1981,-12.1548 -39.5894,-19.9364 -54.2554,-21.7723 -15.0765,-1.8874 -31.4253,-3.1208 -33.2887,-2.5116 -1.7086,0.5586 -6.0825,-0.029 -30.8555,-4.147 -12.1778,-2.0243 -22.6365,-8.5451 -33.4511,-20.8564 -10.6318,-12.1031 -13.7537,-23.4501 -9.5989,-34.8897 2.5421,-6.9994 4.8187,-11.6372 6.6272,-13.5002 0.7426,-0.7651 1.3502,-1.8305 1.3502,-2.3678 0,-2.434 16.4193,-18.3658 22.5558,-21.8862 3.5818,-2.0547 8.0149,-4.5983 9.8513,-5.652 11.729,-6.7308 27.0953,-9.7507 40.2005,-7.9004 14.4315,2.0376 27.4306,5.7393 34.5885,9.8496 8.6618,4.9738 28.6326,24.0165 34.293,32.6992 4.605,7.0639 9.7096,21.675 9.3953,26.8923 -0.098,1.6146 0.4581,3.6701 1.2341,4.568 0.7759,0.8979 1.7987,3.6845 2.2729,6.1924 0.583,3.0835 1.42,4.6706 2.5853,4.9018 1.6018,0.3178 1.6919,-0.9326 1.2799,-17.7562 -0.2438,-9.9539 -0.4782,-27.5764 -0.5211,-39.1612 l -0.078,-21.0632 h -3.4488 c -1.8968,0 -3.4488,0.4259 -3.4488,0.9467 0,2.5617 -4.2432,1.9931 -10.4506,-1.4003 -3.6286,-1.9837 -7.2321,-3.6068 -8.0075,-3.6068 -0.7756,0 -3.9235,-1.5061 -6.9954,-3.3467 -3.072,-1.8408 -6.9156,-3.8862 -8.5414,-4.5454 -2.7507,-1.1154 -16.6172,-4.2688 -25.5736,-5.8158 -2.1425,-0.3701 -5.4681,-1.4876 -7.3902,-2.4833 -1.922,-0.9957 -6.7387,-2.1301 -10.7039,-2.521 -9.8643,-0.9726 -36.598,1.1875 -44.3795,3.5859 -3.4443,1.0615 -7.7179,1.9301 -9.4969,1.9301 -6.0024,0 -22.1214,6.7341 -28.0463,11.7171 -3.0043,2.5268 -7.5663,5.9866 -10.1377,7.6883 -10.3203,6.8301 -18.977,21.0135 -23.3694,38.2888 -1.8292,7.1942 -2.1039,10.6162 -1.8339,22.8396 l 0.3177,14.3776 4.2978,8.6258 c 5.4638,10.966 11.9178,21.2566 15.5416,24.7803 1.5531,1.5103 5.706,4.3778 9.2287,6.3725 3.5227,1.9945 8.7026,5.1501 11.511,7.012 5.9206,3.9257 13.3536,6.8294 24.4546,9.5531 4.3356,1.0638 11.4302,3.1022 15.7658,4.5299 5.0657,1.6681 12.1086,2.9563 19.7072,3.6049 6.5034,0.555 16.0368,2.1368 21.1853,3.5148 5.1485,1.3781 14.0167,3.6547 19.7072,5.059 6.9568,1.7167 13.7165,4.3022 20.6337,7.8919 23.0478,11.961 28.3609,17.4128 30.5569,31.355 1.4171,8.9971 1.284,15.7083 -0.4477,22.5571 -2.0468,8.0953 -11.2612,23.8581 -17.1175,29.2822 -7.4267,6.8788 -19.0257,14.7636 -26.6078,18.0874 -12.5246,5.4906 -16.045,6.016 -37.5805,5.6092 -19.2108,-0.3629 -19.9461,-0.4567 -32.2382,-4.1106 -6.9184,-2.0566 -14.7961,-4.8079 -17.5058,-6.114 -2.7097,-1.3061 -7.9177,-3.745 -11.5732,-5.4199 -9.0751,-4.1583 -24.7446,-15.1775 -33.1803,-23.3335 -8.7236,-8.4345 -9.2073,-11.2178 -2.9139,-16.7673 2.2352,-1.971 6.0025,-4.4047 8.3718,-5.4083 2.3694,-1.0036 4.3096,-2.0794 4.3117,-2.3908 0,-0.3113 -1.8069,-1.3888 -4.0197,-2.3946 -5.2819,-2.4007 -15.2688,-12.9446 -16.7498,-17.6839 -0.6389,-2.0449 -1.4844,-4.1745 -1.8789,-4.7328 -1.5582,-2.2051 -3.9527,-11.2313 -3.9527,-14.8998 0,-6.5283 -1.4355,-4.3412 -3.2832,5.0026 -2.3831,12.051 -8.0721,23.9825 -14.5513,30.5185 -2.794,2.8185 -6.2429,5.5698 -7.6642,6.114 -1.4213,0.5442 -3.4709,1.3111 -4.5548,1.704 -1.5976,0.5793 -1.0043,1.0615 3.1337,2.5471 6.9755,2.5041 16.6114,9.4353 19.439,13.9824 2.0505,3.2974 6.0058,15.03 8.1104,24.0577 0.5787,2.4822 0.843,1.6578 1.4293,-4.4584 0.7633,-7.9608 2.6141,-16.2327 3.9847,-17.8088 1.0165,-1.1688 10.6367,9.5727 16.2338,18.1262 3.7605,5.7467 10.4506,12.3932 17.7087,17.5932 4.6306,3.3176 33.5177,16.7973 41.3061,19.275 15.1918,4.8326 22.3754,6.4865 31.6656,7.2906 10.8977,0.9432 36.0912,0.2555 39.5908,-1.0808 z m 1.6702,-16.114 c 0.3404,-0.5674 1.0317,-0.7689 1.5362,-0.4476 1.3667,0.8702 1.1119,1.4793 -0.6189,1.4793 -0.8449,0 -1.2577,-0.4643 -0.9173,-1.0317 z m 37.516,-96.0553 c -0.3417,-0.9173 -0.4186,-1.8767 -0.171,-2.1318 0.7832,-0.8067 2.5522,0.8132 2.5522,2.3371 0,1.9911 -1.6149,1.8519 -2.3812,-0.2053 z m -37.0332,-52.192 c 0,-0.5912 -0.4329,-0.7994 -0.962,-0.4625 -0.5291,0.3369 -2.1919,-0.075 -3.6952,-0.9145 l -2.733,-1.5271 3.0059,-0.041 c 3.1702,-0.043 8.305,1.9687 8.318,3.2584 0,0.4188 -0.8791,0.7614 -1.963,0.7614 -1.0839,0 -1.9707,-0.4838 -1.9707,-1.075 z m -126.9882,-39.362 c -1.3823,-2.584 -0.7341,-4.2473 0.9708,-2.4909 0.5838,0.6013 0.8896,1.9413 0.6795,2.9776 -0.3426,1.6909 -0.5119,1.6411 -1.6503,-0.4867 z m -4.7485,-8.2875 c -0.6137,-1.6749 -0.7265,-3.0453 -0.2507,-3.0453 0.9679,0 2.9052,3.34 2.9052,5.0087 0,2.1651 -1.5663,1.0066 -2.6545,-1.9634 z m -9.1371,-49.5527 c -0.047,-1.9113 1.8368,-5.2625 2.958,-5.2625 1.4952,0 1.1203,1.5955 -0.9872,4.2017 -1.1085,1.3706 -1.952,1.8247 -1.9708,1.0608 z m -704.06894,241.152 c -0.78416,-9.489 -1.40327,-12.4386 -2.37454,-11.313 -1.02319,1.1859 0.94022,18.6724 2.09656,18.6724 0.49907,0 0.62049,-3.2148 0.27798,-7.3594 z m -30.40367,-12.2269 c 3.33082,-6.8136 3.68242,-8.8105 1.28232,-7.2824 -1.02655,0.6537 -7.8335,14.8964 -7.8335,16.3907 0,1.9166 3.62656,-3.1255 6.55118,-9.1083 z m 61.48528,5.6287 c -2.00699,-3.5365 -9.78048,-11.8815 -10.43745,-11.2047 -0.74947,0.7721 9.19496,12.9812 10.57329,12.9812 0.47974,0 0.41861,-0.7994 -0.13584,-1.7765 z m -29.54756,-47.4807 c 3.50851,-11.1536 13.12976,-20.1087 25.19121,-23.4472 10.69757,-2.9611 16.07457,-4.1659 16.52421,-3.7027 0.90949,0.9369 4.53667,-0.927 4.53667,-2.3313 0,-0.7999 -0.38652,-1.4542 -0.85893,-1.4542 -1.56728,0 -16.29351,-10.3369 -22.14341,-15.5432 -8.84343,-7.8707 -19.21732,-23.0197 -23.65546,-34.5441 -2.63548,-6.8435 -6.55166,-27.0226 -6.55166,-33.759 0,-1.8986 -0.44342,-3.4519 -0.98536,-3.4519 -0.54195,0 -0.98536,2.0554 -0.98536,4.5674 0,4.839 -2.16466,19.9407 -4.07417,28.4232 -3.04238,13.515 -12.40494,32.0994 -21.32146,42.3223 -5.12116,5.8715 -14.75908,13.0004 -17.57595,13.0004 -1.29525,0 -2.355,0.4568 -2.355,1.0151 0,0.5583 2.0422,1.0151 4.53823,1.0151 19.23727,0 39.45872,15.4573 45.81462,35.0208 1.16315,3.5801 1.35812,3.7602 1.64862,1.5226 0.18119,-1.3957 1.19513,-5.2897 2.2532,-8.6533 z m 537.45429,-9.5295 c 14.1557,-3.0559 25.2261,-6.219 30.702,-8.7723 2.7954,-1.3034 8.4523,-3.5352 12.571,-4.9595 9.1913,-3.1785 27.2748,-12.4298 35.2265,-18.0213 11.425,-8.034 27.3784,-26.2769 26.0642,-29.8049 -0.9492,-2.5485 -2.9915,-1.6258 -8.9542,4.0457 -9.5511,9.0843 -42.2538,27.9516 -54.2244,31.2839 -29.9994,8.3509 -27.5605,7.9052 -48.2827,8.8221 -11.5924,0.5129 -20.3905,0.496 -21.3668,-0.042 -0.9127,-0.5023 -2.7431,-0.9132 -4.0674,-0.9132 -4.8547,0 -24.8157,-9.9571 -33.7469,-16.8338 -15.5972,-12.0092 -32.0733,-37.1526 -34.1796,-52.1596 -3.4683,-24.7112 -0.7502,-46.6723 7.6773,-62.0321 5.1743,-9.4305 17.2466,-27.2733 21.0826,-31.1599 12.6872,-12.8545 22.4666,-17.9366 40.9522,-21.2817 12.5083,-2.2634 15.3575,-2.4325 30.5462,-1.8126 9.2131,0.3759 19.1899,0.6316 22.1706,0.5681 5.2439,-0.1115 19.8452,2.5003 30.1416,5.3918 10.4208,2.9264 27.9946,11.0095 27.9946,12.8762 0,1.6336 -5.2581,4.4669 -13.2329,7.1304 -7.7489,2.5881 -9.4048,4.0036 -4.6837,4.0036 4.1527,0 19.4469,9.7678 26.3685,16.8405 3.8501,3.9342 7.2537,8.701 9.3604,13.1097 3.1345,6.559 3.3315,7.6205 3.7047,19.9566 0.4052,13.4026 1.8424,18.091 2.0104,6.5588 0.2287,-15.7073 4.2552,-28.933 11.7049,-38.4467 5.9187,-7.5587 16.1593,-14.7349 26.8454,-18.8125 2.2871,-0.8727 2.0754,-1.0566 -2.956,-2.57 -10.7077,-3.2208 -25.6969,-16.031 -29.5476,-25.2522 -2.9305,-7.0178 -6.2173,-23.7708 -5.4694,-27.8779 0.3319,-1.8223 0.1426,-3.5233 -0.4328,-3.8897 -1.2023,-0.7655 -1.3806,-0.2192 -2.9797,9.1211 -2.0451,11.9467 -10.7907,31.6941 -14.1362,31.9193 -0.4588,0.031 -2.8975,-1.8201 -5.4195,-4.1133 -5.2936,-4.8136 -19.1355,-12.2232 -26.1492,-13.9976 -2.6471,-0.6698 -6.4264,-2.0656 -8.3983,-3.1019 -20.6979,-10.878 -75.1001,-14.8483 -96.4979,-7.0426 -2.8934,1.0555 -5.9776,1.9191 -6.8538,1.9191 -1.8065,0 -16.1687,6.6384 -19.9096,9.2025 -1.3548,0.9287 -6.2324,3.6844 -10.8389,6.1239 -6.6779,3.5363 -10.1237,6.2821 -17.0003,13.5473 -12.3718,13.0708 -19.2042,23.835 -24.8423,39.1377 -4.0785,11.0702 -4.777,14.113 -5.4755,23.8547 -0.4405,6.1414 -1.3728,13.3351 -2.072,15.9863 -1.0156,3.8508 -1.0283,5.6879 -0.063,9.1358 0.6644,2.3736 1.6712,7.0565 2.2372,10.4063 5.0905,30.1291 6.1827,33.0014 18.6433,49.03 10.4768,13.4768 23.2986,23.7121 40.8626,32.6195 11.9168,6.0435 15.1804,7.2389 23.6757,8.672 5.4195,0.9143 11.6273,2.0378 13.7951,2.4967 7.7018,1.6303 28.0687,1.1608 37.4437,-0.8631 z m 66.8589,-199.0409 c -2.853,-1.1858 -3.8691,-3.0602 -1.6369,-3.0197 1.8357,0.034 5.2312,2.2262 5.2312,3.3786 0,0.8331 -0.9563,0.7376 -3.5943,-0.3589 z m -128.2442,-13.0543 c -1.8974,-1.24 0.9113,-3.3047 5.7304,-4.2125 4.9545,-0.9334 4.9621,-0.1089 0.026,2.795 -4.4278,2.6045 -4.0732,2.5171 -5.756,1.4175 z M 738.70183,1310.579 c 0.34329,-0.5722 -2.65209,-0.9593 -7.42368,-0.9593 -4.39956,0 -7.75824,0.4016 -7.46374,0.8925 0.7264,1.2108 14.16492,1.2711 14.88742,0.067 z m -259.18326,-12.1253 c -0.33494,-0.5583 -3.90841,-1.0151 -7.94104,-1.0151 -4.23112,0 -7.33204,0.4292 -7.33204,1.0151 0,0.5927 3.30392,1.0151 7.94104,1.0151 5.0431,0 7.71879,-0.3706 7.33204,-1.0151 z m 245.27381,-12.8986 c 2.12328,-0.4469 4.04473,-1.3819 4.26989,-2.0779 0.55919,-1.7281 -1.22939,-1.6162 -7.87564,0.4927 -5.73506,1.8196 -7.93748,4.0285 -2.96451,2.973 1.49036,-0.3163 4.44697,-0.9408 6.57026,-1.3878 z m -238.86896,-14.4407 c 0,-0.5206 -0.97337,-1.2649 -2.16304,-1.6539 -1.18966,-0.389 -4.23174,-2.0185 -6.76016,-3.6212 -4.5643,-2.8932 -6.85054,-3.6134 -6.83389,-2.1527 0.0107,0.941 12.82772,8.3047 14.52539,8.3452 0.67743,0.016 1.2317,-0.3967 1.2317,-0.9174 z m 221.90219,-11.4881 c 8.05308,-9.659 8.41981,-10.204 6.56783,-9.7606 -1.46243,0.3502 -13.66147,14.1844 -13.66147,15.4928 0,1.843 2.38386,-0.083 7.09364,-5.7322 z m -213.03395,-6.3208 c 0,-1.6215 -9.29843,-9.667 -11.17237,-9.667 -1.17269,0 9.1039,10.9071 10.43335,11.0735 0.40646,0.051 0.73902,-0.5821 0.73902,-1.4065 z"
         id="logoTextMaskPath"
         clip-path="url(#clipPath1)" />
    </mask>
  </defs>
  <sodipodi:namedview
     id="namedview1"
     pagecolor="#ffffff"
     bordercolor="#000000"
     borderopacity="0.25"
     inkscape:showpageshadow="2"
     inkscape:pageopacity="0.0"
     inkscape:pagecheckerboard="0"
     inkscape:deskcolor="#d1d1d1">
    <inkscape:page
       x="0"
       y="0"
       width="1191.4413"
       height="418.91895"
       id="page1"
       margin="0"
       bleed="0" />
  </sodipodi:namedview>
  <rect
     id="logoBackground"
     width="1191.4413"
     height="418.91895"
     x="-1.3535157e-05"
     y="-2.1093751e-05"
     fill="#000000"
     style="fill:#000000;fill-opacity:1" />
  <g
     inkscape:groupmode="layer"
     inkscape:label="Image"
     id="g1"
     transform="translate(-382.88287,-1099.0991)">
    <rect
       id="logoWhiteText"
       x="382.88287"
       y="1099.0991"
       width="1191.4413"
       height="418.91895"
       fill="#ffffff"
       mask="url(#logoTextMask)"
       style="fill:#ffffff;fill-opacity:1" />
  </g>
</svg>
